<svg width="32" height="32" viewBox="0 0 32 32" fill="none" xmlns="http://www.w3.org/2000/svg">
<path d="M16 20C17.1112 20 18.0556 19.6111 18.8334 18.8333C19.6112 18.0556 20 17.1111 20 16C20 14.8889 19.6112 13.9444 18.8334 13.1667C18.0556 12.3889 17.1112 12 16 12C14.8889 12 13.9445 12.3889 13.1667 13.1667C12.3889 13.9444 12 14.8889 12 16C12 17.1111 12.3889 18.0556 13.1667 18.8333C13.9445 19.6111 14.8889 20 16 20ZM16 22.6667C14.1556 22.6667 12.5834 22.0167 11.2834 20.7167C9.98337 19.4167 9.33337 17.8444 9.33337 16C9.33337 14.1556 9.98337 12.5833 11.2834 11.2833C12.5834 9.98333 14.1556 9.33333 16 9.33333C17.8445 9.33333 19.4167 9.98333 20.7167 11.2833C22.0167 12.5833 22.6667 14.1556 22.6667 16C22.6667 17.8444 22.0167 19.4167 20.7167 20.7167C19.4167 22.0167 17.8445 22.6667 16 22.6667ZM6.66671 17.3333H1.33337V14.6667H6.66671V17.3333ZM30.6667 17.3333H25.3334V14.6667H30.6667V17.3333ZM14.6667 6.66667V1.33333H17.3334V6.66667H14.6667ZM14.6667 30.6667V25.3333H17.3334V30.6667H14.6667ZM8.53337 10.3333L5.16671 7.1L7.06671 5.13333L10.2667 8.46666L8.53337 10.3333ZM24.9334 26.8667L21.7 23.5L23.4667 21.6667L26.8334 24.9L24.9334 26.8667ZM21.6667 8.53333L24.9 5.16667L26.8667 7.06667L23.5334 10.2667L21.6667 8.53333ZM5.13337 24.9333L8.50004 21.7L10.3334 23.4667L7.10004 26.8333L5.13337 24.9333Z" fill="black"/>
</svg>
